<svg width="28" height="28" viewBox="0 0 28 28" fill="none" xmlns="http://www.w3.org/2000/svg">
<path d="M0 14C0 6.26801 6.26801 0 14 0C21.732 0 28 6.26801 28 14C28 21.732 21.732 28 14 28C6.26801 28 0 21.732 0 14Z" fill="#FFC549"/>
<path d="M6.5 11.3789H21.5" stroke="white" stroke-width="1.6" stroke-miterlimit="10" stroke-linecap="round" stroke-linejoin="round"/>
<path d="M9.5 17.3789H11" stroke="white" stroke-width="1.6" stroke-miterlimit="10" stroke-linecap="round" stroke-linejoin="round"/>
<path d="M12.875 17.3789H15.875" stroke="white" stroke-width="1.6" stroke-miterlimit="10" stroke-linecap="round" stroke-linejoin="round"/>
<path d="M9.83 7.62891H18.1625C20.8325 7.62891 21.5 8.28891 21.5 10.9214V17.0789C21.5 19.7114 20.8325 20.3714 18.17 20.3714H9.83C7.1675 20.3789 6.5 19.7189 6.5 17.0864V10.9214C6.5 8.28891 7.1675 7.62891 9.83 7.62891Z" stroke="white" stroke-width="1.6" stroke-linecap="round" stroke-linejoin="round"/>
</svg>
