<svg width="32" height="32" viewBox="0 0 32 32" fill="none" xmlns="http://www.w3.org/2000/svg">
<path d="M0 16C0 7.16344 7.16344 0 16 0C24.8366 0 32 7.16344 32 16C32 24.8366 24.8366 32 16 32C7.16344 32 0 24.8366 0 16Z" fill="#FFC549"/>
<path d="M15.5408 7.06637C15.7143 6.66339 16.2857 6.66339 16.4592 7.06637L18.5864 12.0058C18.6588 12.1739 18.8172 12.289 18.9994 12.3059L24.3545 12.8026C24.7914 12.8431 24.9679 13.3865 24.6383 13.6761L20.5979 17.2255C20.4604 17.3463 20.3999 17.5326 20.4401 17.7111L21.6226 22.9575C21.719 23.3856 21.2568 23.7214 20.8795 23.4974L16.2553 20.7516C16.0979 20.6581 15.9021 20.6581 15.7447 20.7516L11.1205 23.4974C10.7432 23.7214 10.281 23.3856 10.3774 22.9575L11.5599 17.7111C11.6001 17.5326 11.5396 17.3463 11.4021 17.2255L7.36171 13.6761C7.03207 13.3865 7.20864 12.8431 7.64552 12.8026L13.0006 12.3059C13.1828 12.289 13.3412 12.1739 13.4136 12.0058L15.5408 7.06637Z" fill="white"/>
</svg>
