<svg width="28" height="28" viewBox="0 0 28 28" fill="none" xmlns="http://www.w3.org/2000/svg">
<path d="M0 14C0 6.26801 6.26801 0 14 0C21.732 0 28 6.26801 28 14C28 21.732 21.732 28 14 28C6.26801 28 0 21.732 0 14Z" fill="#328FE4"/>
<path d="M15.0299 9.26592L9.11991 15.1759C8.89491 15.4009 8.66991 15.8434 8.62491 16.1659L8.30241 18.4234C8.18241 19.2409 8.75991 19.8109 9.57741 19.6984L11.8349 19.3759C12.1499 19.3309 12.5924 19.1059 12.8249 18.8809L18.7349 12.9709C19.7549 11.9509 20.2349 10.7659 18.7349 9.26592C17.2349 7.76592 16.0499 8.24592 15.0299 9.26592Z" stroke="white" stroke-width="1.6" stroke-miterlimit="10" stroke-linecap="round" stroke-linejoin="round"/>
<path d="M14.1826 10.1133C14.6851 11.9058 16.0876 13.3083 17.8876 13.8183" stroke="white" stroke-width="1.6" stroke-miterlimit="10" stroke-linecap="round" stroke-linejoin="round"/>
</svg>
