<svg width="60" height="60" viewBox="0 0 60 60" fill="none" xmlns="http://www.w3.org/2000/svg">
<path d="M26.3499 54.85C25.7749 54.85 25.2248 54.6 24.8498 54.1L22.3248 50.725C21.7998 50.025 21.0999 49.625 20.3499 49.575C19.5999 49.525 18.8498 49.875 18.2498 50.5C14.6248 54.375 11.8748 54.05 10.5498 53.55C9.19984 53.025 6.9248 51.3 6.9248 45.75V17.6C6.9248 6.50002 10.1248 3.125 20.5998 3.125H39.4749C49.9499 3.125 53.1499 6.50002 53.1499 17.6V28.25C53.1499 29.275 52.2999 30.125 51.2749 30.125C50.2499 30.125 49.3999 29.275 49.3999 28.25V17.6C49.3999 8.57502 47.8249 6.875 39.4749 6.875H20.5998C12.2498 6.875 10.6748 8.57502 10.6748 17.6V45.75C10.6748 48.375 11.3248 49.825 11.9248 50.05C12.3748 50.225 13.5999 49.975 15.4999 47.95C16.8749 46.5 18.6748 45.725 20.5498 45.825C22.3998 45.925 24.1498 46.9 25.3248 48.475L27.8748 51.85C28.4998 52.675 28.3248 53.85 27.4998 54.475C27.1248 54.75 26.7249 54.85 26.3499 54.85Z" fill="#6D6D6D"/>
<path d="M45.5 55.375C40.05 55.375 35.625 50.95 35.625 45.5C35.625 40.05 40.05 35.625 45.5 35.625C50.95 35.625 55.375 40.05 55.375 45.5C55.375 50.95 50.95 55.375 45.5 55.375ZM45.5 39.375C42.125 39.375 39.375 42.125 39.375 45.5C39.375 48.875 42.125 51.625 45.5 51.625C48.875 51.625 51.625 48.875 51.625 45.5C51.625 42.125 48.875 39.375 45.5 39.375Z" fill="#6D6D6D"/>
<path d="M54.9996 56.8746C54.5246 56.8746 54.0496 56.6996 53.6746 56.3246L51.1746 53.8246C50.4496 53.0996 50.4496 51.8996 51.1746 51.1746C51.8996 50.4496 53.0996 50.4496 53.8246 51.1746L56.3246 53.6746C57.0496 54.3996 57.0496 55.5996 56.3246 56.3246C55.9496 56.6996 55.4746 56.8746 54.9996 56.8746Z" fill="#6D6D6D"/>
<path d="M40 19.375H20C18.975 19.375 18.125 18.525 18.125 17.5C18.125 16.475 18.975 15.625 20 15.625H40C41.025 15.625 41.875 16.475 41.875 17.5C41.875 18.525 41.025 19.375 40 19.375Z" fill="#6D6D6D"/>
<path d="M37.5 29.375H22.5C21.475 29.375 20.625 28.525 20.625 27.5C20.625 26.475 21.475 25.625 22.5 25.625H37.5C38.525 25.625 39.375 26.475 39.375 27.5C39.375 28.525 38.525 29.375 37.5 29.375Z" fill="#6D6D6D"/>
</svg>
